<svg xmlns="http://www.w3.org/2000/svg" width="176" height="145" fill="none"><path fill="#21005C" d="M81.023 75.357c0-.955-.38-1.873-1.056-2.549L20.898 13.746a3.605 3.605 0 0 0-5.098 0L1.324 28.221a3.603 3.603 0 0 0 0 5.096l42.04 42.04L1.324 117.4a3.607 3.607 0 0 0 0 5.098l14.477 14.475a3.592 3.592 0 0 0 2.549 1.057c.923 0 1.844-.352 2.549-1.057l59.067-59.067a3.593 3.593 0 0 0 1.057-2.548Zm57.748 69.183-.094-15.436 32.02.116c3.584.013 4.684 2.132 4.718 7.735.026 4.263-.361 7.717-4.624 7.701l-32.02-.116Zm-80.644-5.238a5.576 5.576 0 0 0 5.604-5.617c-.012-1.447-.58-3.244-1.493-4.768l-8.223-.03c-.007-1.078.404-2.943 1.07-4.621l-2.745-.01a2.043 2.043 0 0 1-2.03-2.024 1.995 1.995 0 0 1 2.006-2.01l62.772.228a2.046 2.046 0 0 1 2.03 2.025 1.995 1.995 0 0 1-2.005 2.009l-2.579-.009c.666 1.64 1.091 3.448 1.117 4.535l17.964.065.094 15.436-90.483-.329c-2.049-.007-2.966-3.468-2.99-7.728-.025-4.263.665-7.716 2.881-7.716l12.82.043c-.92 1.538-1.494 3.382-1.485 4.86a5.706 5.706 0 0 0 5.675 5.661Zm37.281-14.889c.67 1.637 1.091 3.442 1.115 4.532l8.779.029c-.923 1.54-1.497 3.384-1.488 4.862a5.706 5.706 0 0 0 5.675 5.661 5.576 5.576 0 0 0 5.604-5.617c-.009-1.455-.582-3.252-1.496-4.776l-8.228-.03c-.007-1.078.404-2.943 1.07-4.621l-11.03-.04Zm-17.12-.062c.67 1.637 1.088 3.439 1.118 4.529l8.777.032c-.921 1.537-1.495 3.381-1.486 4.859a5.706 5.706 0 0 0 5.675 5.661 5.576 5.576 0 0 0 5.604-5.617c-.011-1.452-.579-3.249-1.493-4.773l-8.229-.03c-.006-1.079.405-2.943 1.07-4.621l-11.036-.04Zm-7.228 4.496c-.92 1.537-1.495 3.381-1.486 4.859a5.706 5.706 0 0 0 5.676 5.661 5.576 5.576 0 0 0 5.603-5.617c-.011-1.453-.581-3.246-1.49-4.771l-8.228-.029c-.007-1.079.404-2.943 1.07-4.622l-11.03-.04c.665 1.635 1.09 3.437 1.114 4.527l8.77.032Zm40.188-104.126a23.625 23.625 0 0 1-4.254 1.537c-.112.03-.225.057-.338.085-3.248.792-6.421.865-9.153.34-4.13-.795-7.252-2.96-8.1-6.088-1.12-4.128 2.049-8.706 7.459-11.527a4.512 4.512 0 0 0 1.671-1.49 4.396 4.396 0 0 0 .734-2.088c.21-2.502-1.625-4.73-4.177-5.06-3.499-.456-8.576-.685-13.59.61-16.84 4.35-26.8 21.64-22.57 38.132 4.405 17.177 22.346 27.464 39.828 22.924 14.359-3.728 23.969-16.47 24.102-30.366a6.178 6.178 0 0 0-.009-.371c-.314-5.593-6.443-9.096-11.602-6.638Zm-1.379 19.311c-2.512.65-5.085-.81-5.749-3.26-.665-2.452.83-4.963 3.342-5.612 2.511-.649 5.084.811 5.749 3.263.665 2.45-.831 4.96-3.342 5.609Z"/><path fill="url(#a)" d="M101.452 51.016c0 3.096-2.571 5.605-5.744 5.605-3.173 0-5.744-2.51-5.744-5.605 0-3.097 2.571-5.607 5.744-5.607 3.173 0 5.744 2.51 5.744 5.607Z"/><path fill="#28CCFF" d="M85.312 47.114c0 3.096-2.572 5.606-5.744 5.606-3.173 0-5.745-2.51-5.745-5.606s2.572-5.606 5.745-5.606c3.172 0 5.744 2.51 5.744 5.606Z"/><path fill="#FF790E" d="M75.764 33.438c0 3.096-2.572 5.606-5.744 5.606-3.173 0-5.745-2.51-5.745-5.606s2.572-5.606 5.745-5.606c3.172 0 5.744 2.51 5.744 5.606Z"/><path fill="url(#b)" d="M80.56 17.64c0 3.095-2.572 5.606-5.745 5.606s-5.745-2.51-5.745-5.607c0-3.096 2.572-5.606 5.745-5.606s5.745 2.51 5.745 5.606Z"/><defs><linearGradient id="a" x1=".268" x2="179.907" y1="74.695" y2="74.695" gradientUnits="userSpaceOnUse"><stop stop-color="#FF790E"/><stop offset="1" stop-color="#FF0EAD"/></linearGradient><linearGradient id="b" x1=".268" x2="179.907" y1="74.695" y2="74.695" gradientUnits="userSpaceOnUse"><stop stop-color="#28CCFF"/><stop offset="1" stop-color="#0020FF"/></linearGradient></defs></svg>